<?xml version="1.0" encoding="utf-8"?>
<!-- Generator: Adobe Illustrator 25.3.0, SVG Export Plug-In . SVG Version: 6.00 Build 0)  -->
<svg version="1.1" id="Calque_1" xmlns="http://www.w3.org/2000/svg" xmlns:xlink="http://www.w3.org/1999/xlink" x="0px" y="0px"
	 viewBox="0 0 1920 1080" style="enable-background:new 0 0 1920 1080;" xml:space="preserve">
<style type="text/css">
	.st0{fill:#FFFFFF;}
</style>
<path class="st0" d="M1380,0.8c-10.1,11.5-45,54.2-45.2,115.1c-0.1,26,6.5,46.6,10.2,56.6c16.3,44.2,43.2,55.3,64.2,81.1
	c44,54.1,41.6,152.8,21.4,214.9c-15.6,47.9-43.5,76.1-99.3,132.6c-51.3,52-71.4,57.3-90,76.2c0,0-8.8,9.5-17,22.1
	c-49.7,75.8-46.7,142.6-46.7,142.6c4,88.1,81.4,145.8,100.1,159.8c17,12.7,61.1,42.4,237.7,64c82.3,10.1,152.1,13.4,203.4,14.3
	c-573.1-0.6-1146.3-1.2-1719.4-1.7c0-358.8,0-717.6,0-1076.4c367.2-4.9,734.5-6.1,1101.7-3.6C1194.1-1.1,1287.1-0.3,1380,0.8z"/>
<image style="overflow:visible;" width="640" height="640" xlink:href="../../Downloads/self-love.gif"  transform="matrix(4.872781e-02 0 0 4.872781e-02 1411.8787 372)">
</image>
<image style="overflow:visible;" width="640" height="640" xlink:href="../../Downloads/heartbeat (1).gif"  transform="matrix(3.125000e-02 0 0 3.125000e-02 1316.2858 574.2857)">
</image>
<image style="overflow:visible;" width="640" height="640" xlink:href="../../Downloads/heart.gif"  transform="matrix(5.000000e-02 0 0 5.000000e-02 1149.4286 764.5714)">
</image>
<image style="overflow:visible;" width="640" height="640" xlink:href="../../Downloads/stethoscope.gif"  transform="matrix(5.625000e-02 0 0 5.625000e-02 1139.8572 838.8571)">
</image>
<image style="overflow:visible;" width="640" height="640" xlink:href="../../Downloads/ekg.gif"  transform="matrix(4.375000e-02 0 0 4.375000e-02 1161.8572 898.8571)">
</image>
<image style="overflow:visible;" width="640" height="640" xlink:href="../../Downloads/thermometer.gif"  transform="matrix(4.375000e-02 0 0 4.375000e-02 1195.7142 953.4286)">
</image>
<image style="overflow:visible;" width="640" height="640" xlink:href="../../Downloads/heart (1).gif"  transform="matrix(3.750000e-02 0 0 3.750000e-02 1302.7142 1029.4973)">
</image>
<image style="overflow:visible;" width="640" height="640" xlink:href="../../Downloads/medicine (1).gif"  transform="matrix(5.051352e-02 0 0 5.051352e-02 1402.8572 308)">
</image>
<image style="overflow:visible;" width="640" height="640" xlink:href="../../Downloads/healthcare.gif"  transform="matrix(4.107143e-02 0 0 4.107143e-02 1263.7142 612.5714)">
</image>
<image style="overflow:visible;" width="640" height="640" xlink:href="../../Downloads/thermometer.gif"  transform="matrix(4.598214e-02 0 0 4.598214e-02 1175.1428 700.7143)">
</image>
<image style="overflow:visible;" width="640" height="640" xlink:href="../../Downloads/eye-ball.gif"  transform="matrix(4.412933e-02 0 0 4.412933e-02 1404.6573 429.3072)">
</image>
<image style="overflow:visible;" width="640" height="640" xlink:href="../../Downloads/syringe.gif"  transform="matrix(5.000000e-02 0 0 5.000000e-02 1379.8787 475.7143)">
</image>
<image style="overflow:visible;" width="640" height="640" xlink:href="../../Downloads/ambulance.gif"  transform="matrix(4.128629e-02 0 0 4.128629e-02 1350.1482 526.7884)">
</image>
<image style="overflow:visible;" width="640" height="640" xlink:href="../../Downloads/dropper.gif"  transform="matrix(3.977675e-02 0 0 3.977675e-02 1217.9999 649.1429)">
</image>
<image style="overflow:visible;" width="640" height="640" xlink:href="../../Downloads/tablet.gif"  transform="matrix(5.178571e-02 0 0 5.178571e-02 1301.1714 101.4286)">
</image>
<image style="overflow:visible;" width="640" height="640" xlink:href="../../Downloads/microscope.gif"  transform="matrix(5.178571e-02 0 0 5.178571e-02 1308.5714 164.8571)">
</image>
<image style="overflow:visible;" width="640" height="640" xlink:href="../../Downloads/medicine (3).gif"  transform="matrix(4.553571e-02 0 0 4.553571e-02 1341.7142 215.5714)">
</image>
<image style="overflow:visible;" width="640" height="640" xlink:href="../../Downloads/head.gif"  transform="matrix(4.910714e-02 0 0 4.910714e-02 1378.2858 256.2857)">
</image>
<image style="overflow:visible;" width="640" height="640" xlink:href="../../Downloads/first-aid-kit.gif"  transform="matrix(3.750000e-02 0 0 3.750000e-02 1250.2858 1001.2116)">
</image>
<image style="overflow:visible;" width="640" height="640" xlink:href="../../Downloads/wheelchair.gif"  transform="matrix(4.791775e-02 0 0 4.791775e-02 1326.6948 0.6663)">
</image>
<image style="overflow:visible;" width="640" height="640" xlink:href="../../Downloads/blood-bag.gif"  transform="matrix(5.311121e-02 0 0 5.311121e-02 1303.5758 49.3855)">
</image>
<image style="overflow:visible;" width="640" height="640" xlink:href="../../Downloads/reception.gif"  transform="matrix(2.232143e-02 0 0 2.232143e-02 1456 1061.6349)">
</image>
<image style="overflow:visible;" width="640" height="640" xlink:href="../../Downloads/caring.gif"  transform="matrix(3.414343e-02 0 0 3.414343e-02 1407.0741 1054.0687)">
</image>
<image style="overflow:visible;" width="640" height="640" xlink:href="../../Downloads/helping.gif"  transform="matrix(3.839286e-02 0 0 3.839286e-02 1355.1428 1043.7831)">
</image>
</svg>
