<?xml version="1.0" encoding="utf-8"?>
<!-- Generator: Adobe Illustrator 25.3.0, SVG Export Plug-In . SVG Version: 6.00 Build 0)  -->
<svg version="1.1" id="Calque_1" xmlns="http://www.w3.org/2000/svg" xmlns:xlink="http://www.w3.org/1999/xlink" x="0px" y="0px"
	 viewBox="0 0 1920 1080" style="enable-background:new 0 0 1920 1080;" xml:space="preserve">
<style type="text/css">
	.st0{fill:url(#SVGID_1_);}
</style>
<linearGradient id="SVGID_1_" gradientUnits="userSpaceOnUse" x1="-0.5199" y1="546.7502" x2="1729.0394" y2="546.7502" gradientTransform="matrix(1 0 0 -1 0 1080)">
	<stop  offset="0" style="stop-color:#ED1C24"/>
	<stop  offset="0.2331" style="stop-color:#B0151B"/>
	<stop  offset="0.6101" style="stop-color:#520A0C"/>
	<stop  offset="0.8742" style="stop-color:#170303"/>
	<stop  offset="1" style="stop-color:#000000"/>
</linearGradient>
<path class="st0" d="M1672.7,125.8c20.2,21.9,69.5,75.1,53,119.5c-13.9,37.4-64.9,49.3-77.7,52c-38.4-20.5-82.9-19.7-114.3,2.9
	c-4.2,3-31.1,22.9-37,56.9c-5.1,29.3,9.4,45.7,19.5,78.1c14.9,47.8,11.3,101.1-2.5,133.6c-26.1,61.5-83,46.2-131.5,104
	c-82.9,98.9-21.1,268.9-17.1,279.4c29.3,77.4,79.9,125.3,107.2,147.7c-490.9-1.6-981.9-3.2-1472.8-4.8C-0.3,730.1-0.2,365.1,0,0
	c274-15.3,521.1-25.1,736-31.4C862.8-35.2,1510-50.6,1672.7,125.8z"/>
</svg>
