    <?xml version="1.0" encoding="utf-8"?>
        <!-- Generator: Adobe Illustrator 25.3.0, SVG Export Plug-In . SVG Version: 6.00 Build 0)  -->
        <svg
          version="1.1"
          id="Calque_1"
          xmlns="http://www.w3.org/2000/svg"
          xmlns:xlink="http://www.w3.org/1999/xlink"
          x="0px"
          y="0px"
          viewBox="0 0 1920 1080"
          style="enable-background: new 0 0 1920 1080"
          xml:space="preserve"
        >
          <style type="text/css">
            .st0 {
              fill: url(#SVGID_1_);
            }
          </style>
          <linearGradient
            id="SVGID_1_"
            gradientUnits="userSpaceOnUse"
            x1="-0.5199"
            y1="541.5118"
            x2="1718.8572"
            y2="541.5118"
            gradientTransform="matrix(1 0 0 -1 0 1080)"
          >
            <stop offset="0" style="stop-color: hsl(45 100% 45% / 1)" />
            <stop offset="0.2331" style="stop-color: hsl(45 100% 45% / 1)" />
            <stop offset="0.6101" style="stop-color: hsl(45 100% 45% / 1)" />
            <stop offset="0.8742" style="stop-color: #ffc107" />
            <stop offset="1" style="stop-color: #000000" />
          </linearGradient>
          <path
            class="st0"
            d="M1380,0.8c-10.1,11.5-45,54.2-45.2,115.1c-0.1,26,6.5,46.6,10.2,56.6c16.3,44.2,43.2,55.3,64.2,81.1
                c44,54.1,41.6,152.8,21.4,214.9c-15.6,47.9-43.5,76.1-99.3,132.6c-51.3,52-71.4,57.3-90,76.2c0,0-8.8,9.5-17,22.1
                c-49.7,75.8-46.7,142.6-46.7,142.6c4,88.1,81.4,145.8,100.1,159.8c17,12.7,61.1,42.4,237.7,64c82.3,10.1,152.1,13.4,203.4,14.3
                c-573.1-0.6-1146.3-1.2-1719.4-1.7c0-358.8,0-717.6,0-1076.4c367.2-4.9,734.5-6.1,1101.7-3.6C1194.1-1.1,1287.1-0.3,1380,0.8z"
          />
        </svg>